<svg version="1.1" xmlns="http://www.w3.org/2000/svg" style="display: none;">
  <symbol id="i-metro" viewBox="0 0 19.88 14">
    <title>Метро</title>
    <polygon points="9.94 14 13.17 8.39 14.51 12.19 13.43 12.19 13.43 13.86 19.88 13.86 19.88 12.19 18.64 12.19 14.01 0 9.94 7.5 5.87 0 1.23 12.19 0 12.19 0 13.86 6.45 13.86 6.45 12.19 5.37 12.19 6.71 8.39 9.94 14" />
  </symbol>
  <symbol id="i-cart" viewBox="0 0 17.34 17">
    <title>Корзина</title>
    <path d="M17.34,17H0V5.28H17.34ZM1,16H16.34V6.28H1Z"/>
    <path d="M13.78,8.6a.5.5,0,0,1-.5-.5c0-4.91-1.42-7.1-4.59-7.1S4.1,3.19,4.1,8.1a.5.5,0,0,1-1,0c0-2,0-8.1,5.59-8.1s5.59,6.09,5.59,8.1A.5.5,0,0,1,13.78,8.6Z"/>
  </symbol>
  <symbol id="i-help" viewBox="0 0 16 16">
    <title>Помощь</title>
     <path d="M7.24,10.45a.84.84,0,0,1,0-.16v-.16A3,3,0,0,1,7.41,9a4.14,4.14,0,0,1,.46-.87,6.59,6.59,0,0,1,.59-.73q.32-.34.59-.69A3.85,3.85,0,0,0,9.52,6a2.07,2.07,0,0,0,.19-.9A1.58,1.58,0,0,0,9.31,4,1.71,1.71,0,0,0,8,3.57a3.36,3.36,0,0,0-1.08.19A4.47,4.47,0,0,0,6,4.19l-.4-.92a5.58,5.58,0,0,1,1.18-.54,5.09,5.09,0,0,1,1.54-.2,3.27,3.27,0,0,1,1.15.19,2.34,2.34,0,0,1,.83.51,2.05,2.05,0,0,1,.5.77,2.72,2.72,0,0,1,.16.95,3.1,3.1,0,0,1-.2,1.16,4,4,0,0,1-.5.9,7.49,7.49,0,0,1-.65.76,8.46,8.46,0,0,0-.65.75,4,4,0,0,0-.5.85,2.69,2.69,0,0,0-.2,1.08Zm-.3,1.94a.85.85,0,0,1,.23-.63.83.83,0,0,1,.61-.23.88.88,0,0,1,.64.23.94.94,0,0,1,0,1.25.86.86,0,0,1-.64.24A.82.82,0,0,1,7.18,13,.85.85,0,0,1,6.95,12.39Z" />
     <path class="cls-1" d="M8,16a8,8,0,1,1,8-8A8,8,0,0,1,8,16ZM8,1.12A6.88,6.88,0,1,0,14.88,8,6.89,6.89,0,0,0,8,1.12Z"/>
  </symbol>
  <symbol id="i-close" viewBox="0 0 17.2 17.2">
    <title>Закрыть</title>
    <path d="M4.6,13.37a.6.6,0,0,1-.42-1L12.53,4a.6.6,0,0,1,.84.84L5,13.19A.59.59,0,0,1,4.6,13.37Z" />
    <path d="M8.6,17.2a8.6,8.6,0,1,1,8.6-8.6A8.61,8.61,0,0,1,8.6,17.2Zm0-16A7.4,7.4,0,1,0,16,8.6,7.41,7.41,0,0,0,8.6,1.2Z" />
    <path d="M12.95,13.37a.6.6,0,0,0,.42-1L5,4a.6.6,0,1,0-.84.84l8.35,8.35A.59.59,0,0,0,12.95,13.37Z" />
  </symbol>
  <symbol id="i-remove" viewBox="0 0 16 16">
    <title>Убрать</title>
    <path d="M8,16a8,8,0,1,1,8-8A8,8,0,0,1,8,16ZM8,1.12A6.88,6.88,0,1,0,14.88,8,6.89,6.89,0,0,0,8,1.12Z" />
    <path d="M12,8.75H4a.75.75,0,0,1,0-1.5H12a.75.75,0,0,1,0,1.5Z"/>
  </symbol>
  <symbol id="i-discount" viewBox="0 0 16 16">
    <path d="M1.16,15.82a1,1,0,0,1-.69-1.67L14.15.46a1,1,0,1,1,1.38,1.38L1.85,15.54A1,1,0,0,1,1.16,15.82Z" />
    <path d="M4.06,8.11A4.06,4.06,0,1,1,8.11,4.06,4.06,4.06,0,0,1,4.06,8.11Zm0-5.8A1.74,1.74,0,1,0,5.8,4.06,1.75,1.75,0,0,0,4.06,2.31Z"/>
    <path d="M11.94,16A4.06,4.06,0,1,1,16,11.94,4.06,4.06,0,0,1,11.94,16Zm0-5.8a1.74,1.74,0,1,0,1.74,1.74A1.75,1.75,0,0,0,11.94,10.2Z"/>
  </symbol>
  <symbol id="i-search"  viewBox="0 0 16 16">
    <path d="M6.12,12.47h0a6,6,0,0,1-4.33-1.83,6.32,6.32,0,0,1,0-8.81,6,6,0,0,1,8.67,0,6.32,6.32,0,0,1,0,8.81h0A6,6,0,0,1,6.12,12.47ZM6.12,1a5,5,0,0,0-3.6,1.52,5.29,5.29,0,0,0,0,7.37,5,5,0,0,0,7.2,0h0a5.29,5.29,0,0,0,0-7.37A5,5,0,0,0,6.12,1Z"/>
    <path d="M15.49,16a.51.51,0,0,1-.36-.14l-5.4-5.21a.51.51,0,1,1,.71-.74l5.4,5.21a.51.51,0,0,1-.36.88Z"/>
  </symbol>
 </svg>
 