<svg xmlns="http://www.w3.org/2000/svg" viewBox="0 0 204 24" width="204" height="24">
  <path d="M13.4 11.3v12.3H7.2V11.3H0V6.1h20.6v5.2h-7.2zM37 23.6H23.4V6.1h14.2c3.2 0 5.2 1.5 5.2 4.2 0 1.6-.6 3.2-2.9 4 2.5.7 3.3 2.3 3.3 4.2.1 3.3-1.9 5.1-6.2 5.1zM34.9 10h-5.2v2.7h5.2c1 0 1.6-.4 1.6-1.1v-.4c0-.7-.6-1.2-1.6-1.2zm.3 6.4h-5.6v3.2h5.6c1.1 0 1.7-.5 1.7-1.3v-.6c0-.8-.7-1.3-1.7-1.3zM57.4 24c-7.3 0-11.6-1.8-11.6-9.4 0-7.2 4.3-9 11.6-9S69 7.4 69 14.6c.1 7.6-4.2 9.4-11.6 9.4zm5.3-10.2c0-2.8-1.9-3.3-5.3-3.3s-5.2.5-5.2 3.3v2c0 3.1 1.9 3.4 5.2 3.4 3.4 0 5.3-.2 5.3-3.4v-2zm9.4 9.8V6.1h6.3v10.4l9-10.4h6.4v17.5h-6.3V13.2l-9 10.4h-6.4zM90.5 0c0 3.5-2.3 4.9-7.3 4.9S75.9 3.5 75.9 0h5.4c0 1.6.6 1.8 1.9 1.8 1.3 0 1.9-.2 1.9-1.8h5.4zm14.2 14.9c0-7.3 4.3-9.2 11.1-9.2 6.4 0 10.6 1.7 11 7h-6.4c-.2-1.9-2.1-2.1-4.6-2.1-2.5 0-4.7 0-4.7 3.1v2.4c0 3.1 2.1 3.1 4.7 3.1 2.5 0 4.4-.3 4.6-2h6.4c-.5 5-4.6 6.8-11 6.8-6.8 0-11.1-1.7-11.1-9.1zm25.1 8.7V6.1h17.6V11H136v1.5h6.8v4.4H136v1.8h11.3v4.9h-17.5zm21 0V6.1h6.3v10.4l9-10.4h6.4v17.5h-6.3V13.2l-9 10.4h-6.4zM169.1 0c0 3.5-2.3 4.9-7.3 4.9s-7.3-1.4-7.3-4.9h5.4c0 1.6.6 1.8 1.9 1.8 1.3 0 1.9-.2 1.9-1.8h5.4zm23.7 24h-6.3v-2.6c-7 0-11.2-1.4-11.2-7 0-5.8 4.2-7.1 11.2-7.1V5.7h6.3v1.6c7 0 11.2 1.2 11.2 7.1 0 5.6-4.2 7-11.2 7V24zm-6.3-12.1c-3.6 0-4.8.3-4.8 2.1v.8c0 1.8.9 2.1 4.8 2v-4.9zm6.3 4.8c3.8 0 4.8-.3 4.8-2v-.8c0-1.8-1-2.1-4.8-2.1v4.9z"/>
</svg>
