<svg xmlns="http://www.w3.org/2000/svg" width="200" height="30" viewBox="0 0 200 30"><style>* { fill: #131313; }</style><path d="M92.52 0h8.47v3.28h-8.47zM48.55 0v4.94h-6V24h-4.74V4.94h-6.26V0zm15.08 12.92A6.63 6.63 0 0 1 65 15a6.55 6.55 0 0 1 .52 2.6 6.67 6.67 0 0 1-.52 2.57 6 6 0 0 1-1.37 2 6.31 6.31 0 0 1-2 1.33 6.61 6.61 0 0 1-2.5.47H50V6h5.8a16.7 16.7 0 0 1 2.57.19 4.24 4.24 0 0 1 2.08.89 4.36 4.36 0 0 1 1.28 1.78 6.52 6.52 0 0 1 .33 2.9 6.43 6.43 0 0 1 1.57 1.16zm-6.13-2.2a.93.93 0 0 0-.5-.94 3 3 0 0 0-1.22-.25h-.98V11h2.67a1.22 1.22 0 0 0 .03-.28zM54.8 19H59a1.78 1.78 0 0 0 .47-.09 2.35 2.35 0 0 0 .58-.26 1.67 1.67 0 0 0 .48-.45 1.11 1.11 0 0 0 .2-.66 1.45 1.45 0 0 0-.57-1.12A1.89 1.89 0 0 0 59 16h-4.2zM76.32 6a9 9 0 0 1 6.38 2.61 9.24 9.24 0 0 1 1.93 2.84 8.59 8.59 0 0 1 .72 3.55 8.75 8.75 0 0 1-.7 3.49 9.53 9.53 0 0 1-1.9 2.88 8.77 8.77 0 0 1-2.83 2 8.63 8.63 0 0 1-3.5.72 8.92 8.92 0 0 1-3.52-.7 9 9 0 0 1-4.83-4.76 8.57 8.57 0 0 1-.72-3.49 8.88 8.88 0 0 1 .7-3.51A9.07 9.07 0 0 1 70 8.68a9.27 9.27 0 0 1 2.83-1.95A8.55 8.55 0 0 1 76.32 6zm.07 13.28a4 4 0 0 0 1.6-.33 4.14 4.14 0 0 0 1.33-.95 4.68 4.68 0 0 0 .92-1.36 4 4 0 0 0 .35-1.64 4 4 0 0 0-.33-1.63 4.16 4.16 0 0 0-.92-1.33 4.45 4.45 0 0 0-1.37-.9 4.19 4.19 0 0 0-1.65-.33 3.89 3.89 0 0 0-1.63.35 4.53 4.53 0 0 0-1.33.92 4.21 4.21 0 0 0-.9 1.35 4.08 4.08 0 0 0-.33 1.61 4 4 0 0 0 .35 1.65A4.31 4.31 0 0 0 73.4 18a4.47 4.47 0 0 0 1.35.9 4.06 4.06 0 0 0 1.64.38zM100.98 24V13.65L92.52 24h-4.77V6h4.77v10.35L100.98 6h4.77v18h-4.77m23.7-11.64a5.8 5.8 0 0 0-1 1.31 2.6 2.6 0 0 0-.35 1.24 3.2 3.2 0 0 0 .37 1.49 5 5 0 0 0 1 1.35A4.66 4.66 0 0 0 128 19h4v5h-4a10.37 10.37 0 0 1-7-2.74 9.53 9.53 0 0 1-2.16-3A7.73 7.73 0 0 1 118 15a8 8 0 0 1 .76-3.2 9.12 9.12 0 0 1 2.11-3 10.49 10.49 0 0 1 3.18-2A10.14 10.14 0 0 1 128 6h4v5.07h-4a4.71 4.71 0 0 0-3.32 1.29zm13.89 4.52a4.56 4.56 0 0 0 .83 1.12 4.09 4.09 0 0 0 3 1.23 4.28 4.28 0 0 0 2.47-.83l4.13 2.67a8.61 8.61 0 0 1-6.57 2.93 8.92 8.92 0 0 1-3.52-.7 9 9 0 0 1-4.83-4.76 8.57 8.57 0 0 1-.72-3.49 8.88 8.88 0 0 1 .7-3.51A9.27 9.27 0 0 1 136 8.66a8.9 8.9 0 0 1 2.83-1.95 8.71 8.71 0 0 1 3.5-.71 9 9 0 0 1 6.38 2.61 9.24 9.24 0 0 1 1.93 2.84 8.59 8.59 0 0 1 .72 3.49 9.15 9.15 0 0 1-.2 1.93h-12.6zm3.77-6.06a4 4 0 0 0-3 1.23 4.8 4.8 0 0 0-1 1.66h8.07a3.94 3.94 0 0 0-1.07-1.7 4.22 4.22 0 0 0-3.01-1.19zM166.81 24V13.65L158.34 24h-4.77V6h4.77v10.35L166.81 6h4.76v18h-4.76M158.34.09h8.47v3.26h-8.47zM189.32 30h-4.7v-6h-2.07a8.15 8.15 0 0 1-3.34-.69 8.53 8.53 0 0 1-2.71-1.88 9 9 0 0 1-2.5-6.3 9.18 9.18 0 0 1 2.45-6.29 8.48 8.48 0 0 1 2.68-1.92 7.88 7.88 0 0 1 3.32-.71h9.24a7.83 7.83 0 0 1 3.4.73 8.06 8.06 0 0 1 2.61 2A9.29 9.29 0 0 1 200 15a9.26 9.26 0 0 1-.62 3.42 9.16 9.16 0 0 1-1.71 2.8 8.57 8.57 0 0 1-2.56 2 7.71 7.71 0 0 1-3.19.81h-2.6zm-8.45-18.75a3.93 3.93 0 0 0-1.25.93 4.44 4.44 0 0 0-.82 1.33 4.21 4.21 0 0 0-.3 1.57 4.31 4.31 0 0 0 .31 1.66 4 4 0 0 0 .85 1.31 4.11 4.11 0 0 0 1.28.88 3.8 3.8 0 0 0 1.56.33h2.1V10.9h-2.17a3.62 3.62 0 0 0-1.56.35zm11.44 8a2.18 2.18 0 0 0 1.27-.4 4 4 0 0 0 1-1 5.1 5.1 0 0 0 .67-1.35 4.63 4.63 0 0 0 .25-1.5 4.24 4.24 0 0 0-1.12-2.88 4.07 4.07 0 0 0-1.25-.92 3.62 3.62 0 0 0-1.58-.35h-2.24v8.36zM12 0a12 12 0 1 0 12 12A12 12 0 0 0 12 0zm8.46 13a1.52 1.52 0 0 0-.94 2.88L20 16a9 9 0 0 1-1.47 2.1l-.26-.36a1.52 1.52 0 0 0-2.45 1.78l.29.4a9 9 0 0 1-2.43.84v-.45a1.52 1.52 0 1 0-3 0v.5a8.48 8.48 0 0 1-2.45-.76l.27-.36A1.52 1.52 0 0 0 6 17.94l-.29.4a9 9 0 0 1-1.55-2l.42-.14a1.52 1.52 0 0 0-.94-2.88l-.47.15A8.76 8.76 0 0 1 3.06 12a8.09 8.09 0 0 1 .08-1.13l.43.14a1.46 1.46 0 0 0 .46.08 1.52 1.52 0 0 0 .47-3L4 8a9 9 0 0 1 1.47-2.1l.26.36a1.52 1.52 0 0 0 2.5-1.82L7.94 4a9 9 0 0 1 2.43-.84v.45a1.52 1.52 0 0 0 3 0v-.47a8.56 8.56 0 0 1 2.45.76l-.27.36A1.52 1.52 0 0 0 18 6l.29-.4a9 9 0 0 1 1.55 2l-.42.14a1.52 1.52 0 0 0 .47 3 1.56 1.56 0 0 0 .47-.08l.47-.15A8.76 8.76 0 0 1 21 12a8.09 8.09 0 0 1-.08 1.13L20.5 13z"/><path d="M12 7a5 5 0 1 0 5 5 5 5 0 0 0-5-5zm0 7.22A2.22 2.22 0 1 1 14.22 12 2.22 2.22 0 0 1 12 14.22z"/></svg>

